HIERARCHY
ROOT Hips
{
	OFFSET -10.056300 7.733760 -472.550000
	CHANNELS 6 Xposition Yposition Zposition Zrotation Yrotation Xrotation 
	JOINT Spine
	{
		OFFSET 0.000000 0.000000 0.000000
		CHANNELS 3 Zrotation Yrotation Xrotation
		JOINT Spine1
		{
			OFFSET 19.000000 0.000000 0.000000
			CHANNELS 3 Zrotation Yrotation Xrotation
			JOINT Neck
			{
				OFFSET 22.500000 0.600000 0.000000
				CHANNELS 3 Zrotation Yrotation Xrotation
				JOINT Head
				{
					OFFSET 14.000000 0.030878 0.000000
					CHANNELS 3 Zrotation Yrotation Xrotation
					End Site
					{
						OFFSET 17.000000 0.000000 0.000000
					}
				}
			}
			JOINT LeftShoulder
			{
				OFFSET 19.800000 3.700000 4.300000
				CHANNELS 3 Zrotation Yrotation Xrotation
				JOINT LeftArm
				{
					OFFSET 8.000000 0.000000 0.000000
					CHANNELS 3 Zrotation Yrotation Xrotation
					JOINT LeftForeArm
					{
						OFFSET 15.200000 0.000000 0.000000
						CHANNELS 3 Zrotation Yrotation Xrotation
						JOINT LeftHand
						{
							OFFSET 17.800000 0.000000 0.000000
							CHANNELS 3 Zrotation Yrotation Xrotation
							End Site
							{
								OFFSET 7.200000 0.000000 0.000000
							}
						}
					}
				}
			}
			JOINT RightShoulder
			{
				OFFSET 19.800000 3.700000 -4.300000
				CHANNELS 3 Zrotation Yrotation Xrotation
				JOINT RightArm
				{
					OFFSET 8.000000 0.000000 0.151654
					CHANNELS 3 Zrotation Yrotation Xrotation
					JOINT RightForeArm
					{
						OFFSET 15.200000 0.000000 0.000000
						CHANNELS 3 Zrotation Yrotation Xrotation
						JOINT RightHand
						{
							OFFSET 17.800000 0.000000 0.000000
							CHANNELS 3 Zrotation Yrotation Xrotation
							End Site
							{
								OFFSET 7.200000 0.000000 0.000000
							}
						}
					}
				}
			}
		}
	}
	JOINT LeftUpLeg
	{
		OFFSET 5.984250 -7.666000 4.788790
		CHANNELS 3 Zrotation Yrotation Xrotation
		JOINT LeftLeg
		{
			OFFSET 16.000000 0.000000 0.000000
			CHANNELS 3 Zrotation Yrotation Xrotation
			JOINT LeftFoot
			{
				OFFSET 18.000000 0.000000 0.000000
				CHANNELS 3 Zrotation Yrotation Xrotation
				End Site
				{
					OFFSET 0.000000 -10.800000 0.000000
				}
			}
		}
	}
	JOINT RightUpLeg
	{
		OFFSET 5.984250 -7.665980 -4.788790
		CHANNELS 3 Zrotation Yrotation Xrotation
		JOINT RightLeg
		{
			OFFSET 16.000000 0.000000 0.000000
			CHANNELS 3 Zrotation Yrotation Xrotation
			JOINT RightFoot
			{
				OFFSET 18.000000 0.000000 0.000000
				CHANNELS 3 Zrotation Yrotation Xrotation
				End Site
				{
					OFFSET 0.000000 -10.800000 0.000000
				}
			}
		}
	}
	JOINT Tail
	{
		OFFSET 6.836960 -0.722574 0.000000
		CHANNELS 3 Zrotation Yrotation Xrotation
		JOINT Tail1
		{
			OFFSET 12.000000 0.000000 0.000000
			CHANNELS 3 Zrotation Yrotation Xrotation
			End Site
			{
				OFFSET 12.000000 0.000000 0.000000
			}
		}
	}
}
MOTION
Frames: 9
Frame Time: 0.033333
-469437.875000 -190189.812500 2104544.250000 -63.950504 67.490662 -55.135841 -133.501892 -13.990669 -6.540316 -72.960182 -28.803118 1.553171 -37.544647 9.279032 69.000305 -14.583206 75.252159 -109.830879 95.730980 -57.804497 -119.118370 -22.174891 -65.664093 154.236130 -132.132751 2.351934 3.148972 11.471641 20.939074 7.066361 34.254902 20.901136 -123.600410 72.495705 -75.863197 107.093285 95.368668 -24.968046 -99.993515 -46.570049 2.242244 -25.988386 -147.670944 -44.068581 6.194376 112.129410 13.071321 110.113358 155.293930 -22.210699 -82.252541 -138.483490 -9.741076 67.346687 126.621834 68.050957 46.829197 33.395744 -37.846848 -31.699554 72.361198 -17.299810 105.289375 17.014631 44.106243 63.933525 
-463281.875000 -206925.718750 2116408.250000 -73.123604 64.382797 -59.245865 -133.728699 -14.562856 -6.716325 -72.030838 -27.920586 0.870574 -39.749653 8.359875 67.436646 -13.825824 75.395432 -108.750549 85.369591 -56.993687 -109.016724 -20.039387 -63.556492 156.056534 -133.011475 -1.715232 3.935396 15.486752 21.969595 7.665945 30.667511 21.215078 -122.715378 70.224861 -73.090668 108.620857 95.706551 -24.627865 -101.041550 -56.528099 0.440080 -23.724302 -146.978745 -42.949383 6.426468 108.418610 18.025301 110.600616 153.306778 -23.942995 -80.369186 -140.720840 -8.812593 68.624962 123.023872 67.921196 39.462582 33.424526 -37.334053 -31.356068 80.247749 -13.812021 104.266052 15.015383 53.379135 60.510254 
-456084.562500 -215604.921875 2122487.750000 -71.627792 65.550591 -58.966694 -134.081024 -14.840449 -6.455228 -70.105591 -19.383251 -4.920157 -43.104515 10.233103 69.747063 -8.886277 75.362083 -103.837120 81.871681 -57.232883 -103.101707 -7.243254 -64.382790 149.547333 -133.326355 -5.858480 0.442202 19.238298 19.762245 8.863852 29.630938 19.374220 -121.672447 66.034355 -70.057625 111.633110 95.751511 -20.940094 -100.182655 -64.742058 4.331568 -17.335110 -146.432068 -41.381035 6.668574 103.426651 22.863846 110.072365 151.046585 -26.299683 -79.399147 -145.155518 -5.759297 64.886551 121.337936 67.879646 34.131626 30.019793 -34.400719 -26.849712 78.776169 -16.330898 104.162277 9.109889 65.421249 42.216309 
-449970.312500 -225415.906250 2139675.750000 -64.908813 64.732956 -52.817883 -144.654373 -13.828689 2.806590 -68.110428 -19.568253 -4.831436 -34.354492 3.742194 72.803032 65.559509 78.133789 -31.329506 85.300644 -54.773060 -104.885574 -12.602138 -57.594227 154.763214 -132.163147 -8.849697 -5.003492 19.946205 15.698120 9.481253 26.594234 17.227383 -124.531708 68.040596 -63.420422 112.184647 93.558350 -15.783343 -97.236656 -68.678642 1.367450 -12.420147 -145.879044 -40.096443 7.186503 97.312668 26.832561 108.404976 148.121338 -31.058725 -82.408806 -148.956451 -3.651174 62.365055 120.058273 68.612274 29.601042 31.756058 -33.380695 -26.453224 72.977966 -17.712919 105.209686 -25.929859 73.937927 -15.972692 
-447351.718750 -225654.093750 2164765.000000 -41.494438 69.448914 -29.794519 -142.968353 -13.146781 1.374778 -77.517563 -18.937571 3.741741 -36.859962 5.624233 73.235077 45.494740 71.018532 -49.692726 101.047623 -57.884171 -118.792313 -17.704430 -65.704491 156.189041 -137.462646 -16.360626 -5.280270 7.992683 13.314853 1.116195 32.997578 19.687714 -125.127571 76.796402 -62.115696 95.266190 91.112625 -0.347947 -93.852150 -79.129189 -9.580150 -9.074364 -135.202576 -33.791908 1.506749 103.592964 27.838089 109.314232 140.295059 -39.147774 -70.162445 -142.296631 0.277715 59.281155 140.896362 62.183193 47.611725 38.693756 -28.232109 -21.377882 53.707680 -19.960630 109.184471 -63.798771 65.054192 -78.968452 
-446460.781250 -225464.734375 2193948.250000 -52.917152 63.408749 -40.313770 -135.255157 -8.252052 -2.769890 -67.220604 -16.794024 -3.996953 -43.917706 6.452401 72.478081 49.615383 60.472744 -40.847061 94.949532 -47.450676 -113.211441 -17.557339 -66.915215 165.803940 -125.195763 -13.159306 -9.557432 6.573021 14.771125 5.742927 25.597851 14.452471 -118.558144 59.254669 -60.268467 116.869965 83.549957 -1.148609 -85.662735 -71.502632 -2.709754 -5.397394 -142.176575 -36.523533 4.933144 85.989220 31.140890 104.231979 142.366302 -32.900738 -71.858162 -152.990753 -1.285400 59.467701 117.656723 70.591431 22.174068 36.172241 -29.323818 -22.750500 48.281033 -19.766037 108.466347 -46.480362 56.181030 -85.495544 
-447913.562500 -235089.859375 2228492.500000 -63.834179 65.430099 -49.280643 -137.659622 -8.052701 -2.418586 -65.573059 -14.444497 -4.747092 -38.991413 7.703197 70.497498 59.010590 62.474213 -35.846214 84.113853 -50.168743 -100.840797 -18.278402 -60.937351 166.728790 -119.661819 -14.018729 -7.888134 -1.036509 19.002672 2.106668 22.207975 14.248838 -121.550453 59.510853 -58.012302 116.399559 86.023949 -1.459658 -87.732178 -68.468628 -2.650394 -3.597389 -138.506195 -33.248428 -2.537751 82.328812 31.348066 102.999130 139.336243 -36.544441 -72.929565 -154.575333 -0.557055 56.767891 113.393753 71.878746 15.994802 38.156776 -26.852867 -21.133760 35.782513 -24.856035 106.482613 -32.160114 49.842205 -86.541763 
-451558.343750 -242135.328125 2263021.750000 -50.152515 72.402527 -35.278999 -143.936432 -15.057315 1.645187 -73.043968 -13.215173 1.898662 -26.604454 9.927082 67.516678 53.925804 68.252213 -42.488422 96.860672 -54.753696 -112.673439 -33.199257 -66.649986 176.997437 -122.356934 -21.066711 -2.467361 -13.867382 27.905912 -8.230103 28.901175 17.576756 -123.092232 68.889694 -59.789391 97.716705 84.951042 12.935532 -86.456932 -73.999451 -10.323107 -3.281557 -131.612473 -29.939463 4.068782 93.482086 29.326065 106.566673 130.973816 -43.151196 -60.933002 -146.299606 2.691988 52.534092 136.884216 67.091003 38.054306 46.315662 -20.077293 -17.619074 9.127090 -25.114492 115.491379 -29.260714 43.897968 -90.814667 
-455757.875000 -241682.171875 2296946.000000 -46.251575 83.223694 -30.685764 -134.409195 -19.782013 -8.158938 -63.182865 -11.809653 8.007513 -36.747616 8.997476 63.006634 29.623434 64.569130 -62.521061 113.647827 -59.557907 -129.508911 -53.608959 -74.489861 -170.741135 -108.372040 -32.046066 -1.142618 -14.834750 22.802975 -13.086362 37.764614 19.801788 -118.749786 81.230988 -61.325054 76.105446 84.450821 26.252113 -85.604309 -60.204044 -17.109024 -5.897535 -124.114845 -27.490454 11.923477 103.923630 24.950304 110.367149 123.008446 -45.117908 -45.394154 -136.367920 6.533839 48.801422 147.683105 60.792336 47.986908 56.373913 -8.460256 -20.553169 -8.970027 -30.256067 123.015854 -12.971696 39.861069 -73.897285 
